<?xml version="1.0" standalone="no"?>
<!DOCTYPE svg PUBLIC "-//W3C//DTD SVG 20010904//EN"
 "http://www.w3.org/TR/2001/REC-SVG-20010904/DTD/svg10.dtd">
<svg version="1.0" xmlns="http://www.w3.org/2000/svg"
 width="162.000000pt" height="162.000000pt" viewBox="0 0 162.000000 162.000000"
 preserveAspectRatio="xMidYMid meet">
<metadata>
Created by potrace 1.11, written by Peter Selinger 2001-2013
</metadata>
<g transform="translate(0.000000,162.000000) scale(0.100000,-0.100000)"
fill="#000000" stroke="none">
<path d="M0 810 l0 -810 810 0 810 0 0 810 0 810 -810 0 -810 0 0 -810z m737
604 c62 -47 68 -70 67 -254 -1 -176 -10 -259 -55 -511 -18 -97 -13 -103 58
-74 142 58 220 80 327 92 42 4 57 3 52 -5 -3 -6 3 -16 14 -22 17 -9 19 -17 15
-53 -15 -107 -19 -113 -129 -169 -121 -60 -211 -114 -368 -220 -65 -43 -121
-78 -126 -78 -29 0 -132 144 -132 185 0 8 -4 15 -10 15 -5 0 -10 13 -10 29 0
20 9 37 29 54 27 22 30 31 40 133 31 319 38 717 16 845 -6 30 -4 37 17 46 12
7 54 12 92 12 59 1 74 -3 103 -25z"/>
</g>
</svg>
